<svg fill="#000000" xmlns="http://www.w3.org/2000/svg"  viewBox="0 0 50 50" width="50px" height="50px"><path d="M 11 4 C 7.1456661 4 4 7.1456661 4 11 L 4 39 C 4 42.854334 7.1456661 46 11 46 L 39 46 C 42.854334 46 46 42.854334 46 39 L 46 11 C 46 7.1456661 42.854334 4 39 4 L 11 4 z M 11 6 L 39 6 C 41.773666 6 44 8.2263339 44 11 L 44 39 C 44 41.773666 41.773666 44 39 44 L 11 44 C 8.2263339 44 6 41.773666 6 39 L 6 11 C 6 8.2263339 8.2263339 6 11 6 z M 10.949219 17.990234 A 1.0001 1.0001 0 0 0 10.322266 19.736328 L 25 33.259766 L 39.677734 19.736328 A 1.0007509 1.0007509 0 1 0 38.322266 18.263672 L 25 30.541016 L 11.677734 18.263672 A 1.0001 1.0001 0 0 0 10.949219 17.990234 z"/></svg>