<svg xmlns="http://www.w3.org/2000/svg"  viewBox="0 0 64 64" width="64px" height="64px"><g data-name="04-facebook"><rect width="62" height="62" x="1" y="1" fill="#5b79b8" rx="6"/><path fill="#6688cf" d="M57,1H7A6,6,0,0,0,1,7V17A22,22,0,0,0,23,39H41A22,22,0,0,0,63,17V7A6,6,0,0,0,57,1Z"/><path fill="#739ae8" d="M57,1H7A6,6,0,0,0,1,7v4A6,6,0,0,1,7,5H57a6,6,0,0,1,6,6V7A6,6,0,0,0,57,1Z"/><path fill="#4462a3" d="M57,59H7a6,6,0,0,1-6-6v4a6,6,0,0,0,6,6H57a6,6,0,0,0,6-6V53A6,6,0,0,1,57,59Z"/><rect width="10" height="4" x="30" y="59" fill="#aeb2d4"/><path fill="#fdfef9" d="M43,21H54V11H42A12,12,0,0,0,30,23v6H22V39h8V59H40V39H52l2-10H40V24A3,3,0,0,1,43,21Z"/><rect width="8" height="3" x="22" y="39" fill="#4462a3"/><polygon fill="#4462a3" points="40 39 40 42 52 42 54 32 53.4 32 52 39 40 39"/><path fill="#4462a3" d="M40,24v3a3,3,0,0,1,3-3H54V21H43A3,3,0,0,0,40,24Z"/><path d="M43,22H54a1,1,0,0,0,1-1V11a1,1,0,0,0-1-1H42a13.049,13.049,0,0,0-11.26,6.5l1.731,1A11.043,11.043,0,0,1,42,12H53v8H43a4,4,0,0,0-4,4v5a1,1,0,0,0,1,1H52.78l-1.6,8H40a1,1,0,0,0-1,1V56h2V40H52a1,1,0,0,0,.98-.8l2-10A1,1,0,0,0,54,28H41V24A2,2,0,0,1,43,22Z"/><path d="M29.18,20.835l1.972.33a11.075,11.075,0,0,1,.473-1.832l-1.885-.666A12.807,12.807,0,0,0,29.18,20.835Z"/><path d="M62,57a5.006,5.006,0,0,1-5,5H41V58H39v4H31V39a1,1,0,0,0-1-1H23V30h7a1,1,0,0,0,1-1V23H29v5H22a1,1,0,0,0-1,1V39a1,1,0,0,0,1,1h7V62H7a5.006,5.006,0,0,1-5-5V7A5.006,5.006,0,0,1,7,2H9V0H7A7.008,7.008,0,0,0,0,7V57a7.008,7.008,0,0,0,7,7H57a7.008,7.008,0,0,0,7-7V55H62Z"/><path d="M57,0H15V2H57c4.351,0,5,5.639,5,9V53h2V11C64,1.072,59.1,0,57,0Z"/><rect width="2" height="2" x="11"/></g></svg>