<?xml version="1.0" standalone="no"?>
<!DOCTYPE svg PUBLIC "-//W3C//DTD SVG 20010904//EN"
 "http://www.w3.org/TR/2001/REC-SVG-20010904/DTD/svg10.dtd">
<svg version="1.0" xmlns="http://www.w3.org/2000/svg"
 width="300.000000pt" height="222.000000pt" viewBox="0 0 300.000000 222.000000"
 preserveAspectRatio="xMidYMid meet">
<metadata>
Created by potrace 1.10, written by Peter Selinger 2001-2011
</metadata>
<g transform="translate(0.000000,222.000000) scale(0.100000,-0.100000)"
fill="#000000" stroke="none">
<path d="M2971 1123 c-1 -722 2 -1103 9 -1113 6 -10 10 349 10 1098 0 616 -4
1112 -9 1112 -4 0 -9 -491 -10 -1097z"/>
<path d="M2294 1923 c-52 -37 -123 -72 -158 -79 -11 -2 -30 -8 -41 -13 -22
-10 -215 -56 -280 -66 -75 -12 -181 -50 -220 -77 -94 -67 -125 -130 -129 -254
-3 -107 1 -131 23 -139 11 -5 31 10 66 49 28 30 73 67 100 82 52 28 169 60
218 59 15 -1 27 2 27 6 0 4 30 10 68 14 37 4 98 15 136 26 37 10 71 18 75 17
7 -1 47 14 101 40 19 9 49 31 66 49 l31 32 -4 120 c-1 65 -3 128 -3 139 0 33
-25 32 -76 -5z m39 -265 c-49 -54 -173 -94 -423 -138 -231 -40 -280 -60 -361
-148 l-59 -65 0 100 c0 91 3 106 28 154 34 66 104 122 187 148 33 11 128 34
210 51 83 18 187 45 233 60 84 28 190 90 194 113 1 6 4 -48 5 -122 3 -117 1
-136 -14 -153z"/>
<path d="M1488 1263 c-11 -3 -22 -21 -29 -45 -31 -117 -92 -210 -231 -353
-120 -125 -144 -154 -173 -214 -33 -65 -43 -160 -25 -216 14 -42 75 -115 96
-115 8 0 14 -4 14 -9 0 -8 373 -17 637 -15 69 1 138 42 173 104 36 64 35 163
-2 241 -28 62 -46 84 -155 199 -159 166 -205 231 -241 334 -26 78 -38 95 -64
89z m40 -85 c31 -101 86 -183 205 -307 130 -135 172 -187 196 -242 54 -125 24
-246 -73 -290 -37 -17 -71 -19 -359 -19 -348 0 -362 2 -409 58 -37 44 -51 95
-45 158 9 87 56 160 201 313 141 149 195 228 227 334 12 37 24 67 28 67 3 0
17 -33 29 -72z"/>
</g>
</svg>
