<svg fill="#000000" xmlns="http://www.w3.org/2000/svg"  viewBox="0 0 80 80" width="80px" height="80px"><path d="M 21.408203 8 C 19.996955 8 19 9.2771329 19 10.650391 L 19 27.552734 C 15.776988 30.45368 12.553167 33.35479 9.3300781 36.255859 A 1.0001 1.0001 0 0 0 9.0195312 37.195312 C 9.3333548 38.766315 9.6471717 40.336153 9.9609375 41.90625 C 9.3309876 43.480801 8.7021774 45.054599 8.0722656 46.628906 A 1.0001 1.0001 0 0 0 9.3164062 47.949219 L 17 45.388672 L 17 66.673828 C 17 69.588235 19.322897 72 22.199219 72 L 55.800781 72 C 58.677103 72 61 69.588235 61 66.673828 L 61 54.660156 C 61.860674 54.044306 62.721372 53.428237 63.582031 52.8125 A 1.0001 1.0001 0 0 0 63.935547 51.648438 C 63.053725 49.29662 62.172792 46.945264 61.291016 44.59375 C 64.641535 43.375598 67.991477 42.157336 71.341797 40.939453 A 1.0001 1.0001 0 0 0 71.894531 39.552734 L 68.894531 33.552734 A 1.0001 1.0001 0 0 0 68 33 L 64.414062 33 L 59 27.585938 L 59 10.650391 C 59 9.2771329 58.001278 8 56.589844 8 L 45 8 L 33 8 L 21.408203 8 z M 21.408203 10 L 33 10 L 45 10 L 56.589844 10 C 56.736409 10 57 10.199648 57 10.650391 L 57 20 L 56.199219 20.402344 L 56.041016 21.283203 L 56.652344 21.9375 L 57 22 L 57 32.068359 L 56.199219 32.46875 L 56.041016 33.351562 L 56.652344 34.005859 L 57 34.068359 L 57 43 L 21 43 L 21 34 L 21.800781 33.597656 L 21.958984 32.716797 L 21.347656 32.0625 L 21 32 L 21 22 L 21.800781 21.597656 L 21.958984 20.716797 L 21.347656 20.0625 L 21 20 L 21 10.650391 C 21 10.199648 21.263451 10 21.408203 10 z M 33 12 L 32.199219 12.402344 L 32.041016 13.283203 L 32.652344 13.9375 L 33 14 L 33.800781 13.597656 L 33.958984 12.716797 L 33.347656 12.0625 L 33 12 z M 45 12 L 44.199219 12.402344 L 44.041016 13.283203 L 44.652344 13.9375 L 45 14 L 45.800781 13.597656 L 45.958984 12.716797 L 45.347656 12.0625 L 45 12 z M 33 16 L 32.199219 16.402344 L 32.041016 17.283203 L 32.652344 17.9375 L 33 18 L 33.800781 17.597656 L 33.958984 16.716797 L 33.347656 16.0625 L 33 16 z M 45 16 L 44.199219 16.402344 L 44.041016 17.283203 L 44.652344 17.9375 L 45 18 L 45.800781 17.597656 L 45.958984 16.716797 L 45.347656 16.0625 L 45 16 z M 25 20 L 24.199219 20.402344 L 24.041016 21.283203 L 24.652344 21.9375 L 25 22 L 25.800781 21.597656 L 25.958984 20.716797 L 25.347656 20.0625 L 25 20 z M 29 20 L 28.199219 20.402344 L 28.041016 21.283203 L 28.652344 21.9375 L 29 22 L 29.800781 21.597656 L 29.958984 20.716797 L 29.347656 20.0625 L 29 20 z M 33 20 L 32.199219 20.402344 L 32.041016 21.283203 L 32.652344 21.9375 L 33 22 L 33.800781 21.597656 L 33.958984 20.716797 L 33.347656 20.0625 L 33 20 z M 37 20 L 36.199219 20.402344 L 36.041016 21.283203 L 36.652344 21.9375 L 37 22 L 37.800781 21.597656 L 37.958984 20.716797 L 37.347656 20.0625 L 37 20 z M 41 20 L 40.199219 20.402344 L 40.041016 21.283203 L 40.652344 21.9375 L 41 22 L 41.800781 21.597656 L 41.958984 20.716797 L 41.347656 20.0625 L 41 20 z M 45 20 L 44.199219 20.402344 L 44.041016 21.283203 L 44.652344 21.9375 L 45 22 L 45.800781 21.597656 L 45.958984 20.716797 L 45.347656 20.0625 L 45 20 z M 49 20 L 48.199219 20.402344 L 48.041016 21.283203 L 48.652344 21.9375 L 49 22 L 49.800781 21.597656 L 49.958984 20.716797 L 49.347656 20.0625 L 49 20 z M 53 20 L 52.199219 20.402344 L 52.041016 21.283203 L 52.652344 21.9375 L 53 22 L 53.800781 21.597656 L 53.958984 20.716797 L 53.347656 20.0625 L 53 20 z M 33 24 L 32.199219 24.402344 L 32.041016 25.283203 L 32.652344 25.9375 L 33 26 L 33.800781 25.597656 L 33.958984 24.716797 L 33.347656 24.0625 L 33 24 z M 45 24 L 44.199219 24.402344 L 44.041016 25.283203 L 44.652344 25.9375 L 45 26 L 45.800781 25.597656 L 45.958984 24.716797 L 45.347656 24.0625 L 45 24 z M 33 28 L 32.199219 28.402344 L 32.041016 29.283203 L 32.652344 29.9375 L 33 30 L 33.800781 29.597656 L 33.958984 28.716797 L 33.347656 28.0625 L 33 28 z M 45 28 L 44.199219 28.402344 L 44.041016 29.283203 L 44.652344 29.9375 L 45 30 L 45.800781 29.597656 L 45.958984 28.716797 L 45.347656 28.0625 L 45 28 z M 19 30.246094 L 19 43 L 18 43 A 1.0001 1.0001 0 0 0 17.683594 43.052734 L 17.683594 43.050781 L 10.728516 45.369141 C 11.128176 44.369857 11.527841 43.370527 11.927734 42.371094 A 1.0001 1.0001 0 0 0 11.980469 41.804688 C 11.684586 40.323495 11.387713 38.843583 11.091797 37.363281 C 13.727579 34.990898 16.363842 32.618405 19 30.246094 z M 59 30.414062 L 63.292969 34.707031 A 1.0001 1.0001 0 0 0 64 35 L 67.382812 35 L 69.603516 39.443359 C 66.343402 40.628661 63.084131 41.814926 59.824219 43 L 59 43 L 59 30.414062 z M 33 32 L 32.199219 32.402344 L 32.041016 33.283203 L 32.044922 33.287109 L 32.041016 33.306641 L 32.652344 33.960938 L 33 34.023438 L 33.800781 33.621094 L 33.958984 32.738281 L 33.955078 32.734375 L 33.958984 32.716797 L 33.347656 32.0625 L 33 32 z M 45 32 L 44.199219 32.402344 L 44.041016 33.283203 L 44.046875 33.291016 L 44.041016 33.328125 L 44.652344 33.982422 L 45 34.044922 L 45.800781 33.644531 L 45.958984 32.761719 L 45.953125 32.753906 L 45.958984 32.716797 L 45.347656 32.0625 L 45 32 z M 25 32.007812 L 24.199219 32.408203 L 24.041016 33.291016 L 24.652344 33.945312 L 25 34.007812 L 25.800781 33.605469 L 25.958984 32.724609 L 25.347656 32.070312 L 25 32.007812 z M 29 32.015625 L 28.199219 32.416016 L 28.041016 33.298828 L 28.652344 33.953125 L 29 34.015625 L 29.800781 33.613281 L 29.958984 32.732422 L 29.347656 32.078125 L 29 32.015625 z M 37 32.029297 L 36.199219 32.431641 L 36.041016 33.314453 L 36.652344 33.96875 L 37 34.029297 L 37.800781 33.628906 L 37.958984 32.746094 L 37.347656 32.091797 L 37 32.029297 z M 41 32.037109 L 40.199219 32.439453 L 40.041016 33.320312 L 40.652344 33.976562 L 41 34.037109 L 41.800781 33.636719 L 41.958984 32.753906 L 41.347656 32.099609 L 41 32.037109 z M 49 32.052734 L 48.199219 32.455078 L 48.041016 33.335938 L 48.652344 33.990234 L 49 34.052734 L 49.800781 33.652344 L 49.958984 32.769531 L 49.347656 32.115234 L 49 32.052734 z M 53 32.060547 L 52.199219 32.462891 L 52.041016 33.34375 L 52.652344 33.998047 L 53 34.060547 L 53.800781 33.658203 L 53.958984 32.777344 L 53.347656 32.123047 L 53 32.060547 z M 33 36 L 32.199219 36.402344 L 32.041016 37.283203 L 32.652344 37.9375 L 33 38 L 33.800781 37.597656 L 33.958984 36.716797 L 33.347656 36.0625 L 33 36 z M 45 36 L 44.199219 36.402344 L 44.041016 37.283203 L 44.652344 37.9375 L 45 38 L 45.800781 37.597656 L 45.958984 36.716797 L 45.347656 36.0625 L 45 36 z M 33 40 L 32.199219 40.402344 L 32.041016 41.283203 L 32.652344 41.9375 L 33 42 L 33.800781 41.597656 L 33.958984 40.716797 L 33.347656 40.0625 L 33 40 z M 45 40 L 44.199219 40.402344 L 44.041016 41.283203 L 44.652344 41.9375 L 45 42 L 45.800781 41.597656 L 45.958984 40.716797 L 45.347656 40.0625 L 45 40 z M 22.900391 45 L 59.308594 45 C 60.137675 47.211037 60.96588 49.421895 61.794922 51.632812 C 58.893954 53.708343 55.99259 55.783996 53.091797 57.859375 L 22.900391 45 z M 19 45.513672 L 52.824219 59.919922 A 1.0001 1.0001 0 0 0 53.798828 59.8125 C 55.532449 58.572225 57.266442 57.332292 59 56.091797 L 59 66.673828 C 59 68.539421 57.564459 70 55.800781 70 L 22.199219 70 C 20.435541 70 19 68.539421 19 66.673828 L 19 45.513672 z"/></svg>