<svg xmlns="http://www.w3.org/2000/svg"  viewBox="0 0 40 40" width="40px" height="40px"><polygon fill="#f78f8f" points="10.5,37.5 10.5,2.5 17.5,2.5 17.5,36.5"/><path fill="#c74343" d="M10.5,38c-0.119,0-0.236-0.043-0.327-0.122C10.063,37.783,10,37.645,10,37.5v-35 C10,2.224,10.224,2,10.5,2h7C17.776,2,18,2.224,18,2.5v34c0,0.249-0.183,0.46-0.43,0.495l-7,1C10.547,37.998,10.523,38,10.5,38z M11,3v33.924l6-0.857V3H11z"/><polygon fill="#f78f8f" points="22.5,2.5 22.5,18 29.5,37.5 29.5,2.5"/><path fill="#c74343" d="M29.5,38c-0.208,0-0.398-0.13-0.471-0.331l-7-19.5C22.01,18.114,22,18.058,22,18V2.5 C22,2.224,22.224,2,22.5,2h7C29.776,2,30,2.224,30,2.5v35c0,0.243-0.175,0.451-0.414,0.492C29.557,37.998,29.528,38,29.5,38z M23,17.913l6,16.714V3h-6V17.913z"/><g><polygon fill="#f78f8f" points="17.5,2.5 10.527,2.5 22,36.5 29.5,37.5"/><path fill="#c74343" d="M29.5,38c-0.021,0-0.044-0.001-0.066-0.004l-7.5-1c-0.188-0.025-0.347-0.156-0.407-0.336 l-11.474-34c-0.052-0.153-0.026-0.321,0.067-0.452S10.365,2,10.526,2H17.5c0.214,0,0.403,0.136,0.473,0.338l12,35 c0.057,0.164,0.023,0.345-0.086,0.479C29.791,37.934,29.648,38,29.5,38z M22.374,36.046l6.391,0.852L17.143,3h-5.92L22.374,36.046 z"/></g></svg>