<svg xmlns="http://www.w3.org/2000/svg"  viewBox="0 0 64 64" width="64px" height="64px"><linearGradient id="AxEROc9CXYc3lFJEv7Zwma" x1="29.657" x2="29.657" y1="31.625" y2="47.845" gradientUnits="userSpaceOnUse" spreadMethod="reflect"><stop offset="0" stop-color="#6dc7ff"/><stop offset="1" stop-color="#e6abff"/></linearGradient><path fill="url(#AxEROc9CXYc3lFJEv7Zwma)" d="M32,32H16c0,4.095,1.562,8.19,4.686,11.314c6.248,6.248,16.379,6.248,22.627,0L32,32z"/><linearGradient id="AxEROc9CXYc3lFJEv7Zwmb" x1="32" x2="32" y1="6" y2="57.539" gradientUnits="userSpaceOnUse" spreadMethod="reflect"><stop offset="0" stop-color="#1a6dff"/><stop offset="1" stop-color="#c822ff"/></linearGradient><path fill="url(#AxEROc9CXYc3lFJEv7Zwmb)" d="M32,6C17.663,6,6,17.663,6,32s11.663,26,26,26s26-11.663,26-26S46.337,6,32,6z M32,56 C18.766,56,8,45.233,8,32S18.766,8,32,8c13.234,0,24.001,10.769,24,24C55.999,45.233,45.233,56,32,56z"/><linearGradient id="AxEROc9CXYc3lFJEv7Zwmc" x1="23.025" x2="23.025" y1="15.051" y2="31" gradientUnits="userSpaceOnUse" spreadMethod="reflect"><stop offset="0" stop-color="#6dc7ff"/><stop offset="1" stop-color="#e6abff"/></linearGradient><path fill="url(#AxEROc9CXYc3lFJEv7Zwmc)" d="M31,15.051C22.425,15.553,15.553,22.425,15.051,31H31V15.051L31,15.051z"/><linearGradient id="AxEROc9CXYc3lFJEv7Zwmd" x1="32" x2="32" y1="15" y2="49" gradientUnits="userSpaceOnUse" spreadMethod="reflect"><stop offset="0" stop-color="#1a6dff"/><stop offset="1" stop-color="#c822ff"/></linearGradient><path fill="url(#AxEROc9CXYc3lFJEv7Zwmd)" d="M32,15c-0.338,0-0.667,0.031-1,0.051V31H15.051C15.031,31.333,15,31.662,15,32 c0,9.374,7.626,17,17,17s17-7.626,17-17S41.374,15,32,15z M17.051,33h14.535l10.275,10.275C39.221,45.587,35.776,47,32,47 C24.066,47,17.569,40.805,17.051,33z M43.275,41.861L33,31.586V17.051C40.805,17.569,47,24.066,47,32 C47,35.776,45.587,39.221,43.275,41.861z"/></svg>