<?xml version="1.0" standalone="no"?>
<!DOCTYPE svg PUBLIC "-//W3C//DTD SVG 20010904//EN"
 "http://www.w3.org/TR/2001/REC-SVG-20010904/DTD/svg10.dtd">
<svg version="1.0" xmlns="http://www.w3.org/2000/svg"
 width="256.000000pt" height="256.000000pt" viewBox="0 0 256.000000 256.000000"
 preserveAspectRatio="xMidYMid meet">

<g transform="translate(0.000000,256.000000) scale(0.100000,-0.100000)"
fill="#000000" stroke="none">
<path d="M670 1772 c-58 -39 -415 -296 -537 -387 l-132 -98 58 -46 c150 -118
632 -466 642 -463 7 1 921 659 1144 822 8 6 392 -263 433 -304 11 -11 -4 -26
-98 -95 -152 -112 -322 -231 -330 -231 -4 0 -77 49 -161 109 l-154 109 -28
-16 c-16 -9 -45 -31 -64 -47 l-35 -30 179 -131 c98 -72 197 -143 221 -159 l43
-28 77 53 c42 29 202 143 354 253 l277 201 -42 30 c-23 17 -82 60 -132 96
-245 180 -524 380 -530 380 -10 0 -148 -95 -325 -224 -91 -66 -203 -147 -250
-181 -469 -340 -573 -415 -579 -415 -21 0 -442 310 -436 320 8 14 424 310 434
310 6 0 44 -24 84 -53 39 -29 108 -79 153 -110 l81 -56 61 42 c34 23 60 47 59
52 -4 11 -425 315 -435 314 -4 0 -18 -8 -32 -17z"/>
</g>
</svg>
