<svg fill="#000000" xmlns="http://www.w3.org/2000/svg"  viewBox="0 0 50 50" width="50px" height="50px"><path d="M 1 3 A 1.0001 1.0001 0 0 0 0.02734375 4.2324219 L 10.027344 46.232422 A 1.0001 1.0001 0 0 0 11 47 L 17 47 A 1.0001 1.0001 0 0 0 17.966797 46.257812 L 25 19.882812 L 32.033203 46.257812 A 1.0001 1.0001 0 0 0 33 47 L 39 47 A 1.0001 1.0001 0 0 0 39.972656 46.232422 L 49.972656 4.2324219 A 1.0001 1.0001 0 0 0 49 3 L 41.804688 3 A 1.0001 1.0001 0 0 0 40.832031 3.7675781 L 35.242188 27.244141 L 28.966797 3.7421875 A 1.0001 1.0001 0 0 0 28 3 L 25 3 L 22 3 A 1.0001 1.0001 0 0 0 21.033203 3.7421875 L 14.757812 27.244141 L 9.1679688 3.7675781 A 1.0001 1.0001 0 0 0 8.1953125 3 L 1 3 z M 2.265625 5 L 7.40625 5 L 13.652344 31.232422 A 1.0001 1.0001 0 0 0 14.625 32 L 14.789062 32 A 1.0001 1.0001 0 0 0 15.755859 31.257812 L 22.767578 5 L 25 5 L 27.232422 5 L 34.244141 31.257812 A 1.0001 1.0001 0 0 0 35.210938 32 L 35.375 32 A 1.0001 1.0001 0 0 0 36.347656 31.232422 L 42.59375 5 L 47.734375 5 L 38.210938 45 L 33.767578 45 L 25.966797 15.742188 A 1.0001 1.0001 0 0 0 24.033203 15.742188 L 16.232422 45 L 11.789062 45 L 2.265625 5 z"/></svg>