<?xml version="1.0" standalone="no"?>
<!DOCTYPE svg PUBLIC "-//W3C//DTD SVG 20010904//EN"
 "http://www.w3.org/TR/2001/REC-SVG-20010904/DTD/svg10.dtd">
<svg version="1.0" xmlns="http://www.w3.org/2000/svg"
 width="748.000000pt" height="614.000000pt" viewBox="0 0 748.000000 614.000000"
 preserveAspectRatio="xMidYMid meet">

<g transform="translate(0.000000,614.000000) scale(0.100000,-0.100000)"
fill="#000000" stroke="none">
<path d="M2968 5139 c-125 -109 -218 -198 -218 -208 0 -33 22 -41 112 -41 l88
0 0 -318 c0 -234 3 -321 12 -330 18 -18 56 -14 68 7 6 13 10 143 10 355 0 383
4 366 -83 366 l-52 1 36 32 c113 102 259 227 264 227 4 0 62 -48 129 -107 68
-60 136 -118 152 -130 l29 -22 -55 -1 c-30 0 -61 -4 -69 -9 -11 -7 -14 -61
-18 -268 -2 -160 0 -270 6 -287 13 -32 55 -36 71 -6 7 12 9 104 8 255 l-3 235
90 0 c93 0 115 8 115 41 0 23 -429 399 -455 399 -12 0 -111 -80 -237 -191z"/>
<path d="M3918 5139 c-124 -108 -218 -198 -218 -208 0 -33 22 -41 112 -41 l88
0 0 -236 c0 -143 4 -243 10 -255 15 -28 58 -25 70 5 12 32 13 508 0 540 -8 22
-16 25 -65 28 l-57 3 145 128 c80 70 148 127 152 127 5 0 153 -127 264 -227
l36 -32 -57 -1 c-46 0 -59 -4 -68 -19 -6 -13 -10 -142 -10 -351 0 -209 4 -338
10 -351 12 -21 50 -25 68 -7 9 9 12 96 12 330 l0 318 88 0 c90 0 112 8 112 41
0 23 -429 399 -455 399 -12 0 -110 -79 -237 -191z"/>
<path d="M2178 4877 c-114 -100 -210 -192 -214 -205 -12 -41 10 -52 107 -52
l89 0 2 -536 c3 -499 4 -538 20 -548 13 -8 23 -8 35 0 17 10 18 49 18 585 l0
574 -60 5 -59 5 104 94 c159 142 187 164 203 154 27 -16 277 -238 277 -245 0
-5 -22 -8 -48 -8 -26 0 -53 -5 -60 -12 -9 -9 -12 -126 -12 -465 l0 -453 25
-12 c55 -25 55 -25 57 436 l3 421 93 5 c87 5 111 13 112 41 0 13 -38 50 -230
218 -150 132 -212 180 -230 180 -18 0 -83 -51 -232 -182z"/>
<path d="M4720 4879 c-192 -168 -230 -205 -230 -218 1 -28 25 -36 112 -41 l93
-5 3 -421 c2 -462 2 -461 58 -435 l25 11 -2 452 c0 293 -5 457 -11 466 -6 6
-33 12 -60 12 -28 0 -48 4 -46 10 4 12 277 250 287 250 8 0 259 -218 280 -243
12 -15 9 -17 -32 -17 -84 0 -77 57 -77 -586 0 -563 0 -573 20 -584 14 -8 26
-8 40 0 20 11 20 21 20 550 l0 540 89 0 c97 0 119 11 107 52 -10 34 -420 388
-448 388 -15 -1 -94 -63 -228 -181z"/>
<path d="M3045 4166 c-42 -18 -92 -78 -103 -123 -6 -21 -15 -128 -21 -238 -6
-110 -14 -224 -17 -252 l-6 -53 -277 0 c-334 0 -390 -7 -497 -60 -78 -38 -184
-126 -184 -153 0 -7 -11 -22 -23 -33 -22 -22 -55 -110 -77 -209 -8 -36 -10
-307 -8 -925 l4 -875 23 -65 c31 -90 60 -136 125 -202 69 -70 191 -133 286
-148 89 -14 2731 -14 2820 0 95 15 218 78 286 147 64 65 94 113 126 203 l23
65 0 915 0 915 -23 65 c-51 141 -135 236 -266 300 -108 53 -162 60 -498 60
-153 0 -278 3 -278 8 0 4 -9 126 -19 272 -13 190 -23 274 -34 295 -20 39 -65
81 -100 94 -45 17 -1223 14 -1262 -3z m1261 -100 c19 -19 34 -44 34 -57 0 -35
28 -432 36 -509 4 -36 11 -71 16 -77 8 -10 89 -13 342 -13 186 0 350 -5 375
-11 146 -33 283 -164 320 -306 8 -31 12 -304 11 -936 0 -966 2 -936 -54 -1031
-32 -56 -105 -129 -159 -161 -99 -57 -38 -55 -1547 -55 -1509 0 -1448 -2
-1547 55 -89 53 -177 167 -203 264 -9 33 -11 285 -11 945 1 1012 -3 949 77
1053 72 93 156 149 254 172 26 6 186 11 376 11 253 0 334 3 342 13 5 6 12 41
16 77 8 77 36 474 36 509 0 13 15 38 34 57 l34 34 592 0 592 0 34 -34z"/>
<path d="M3185 3867 c-22 -17 -31 -78 -41 -278 -5 -113 -4 -152 6 -164 19 -22
1041 -23 1060 0 10 12 11 54 5 178 -8 191 -17 246 -41 264 -27 19 -962 19
-989 0z m939 -139 c3 -35 8 -100 11 -145 l5 -83 -195 -1 c-107 -1 -213 -1
-235 -1 -22 0 -142 0 -266 1 l-225 1 6 83 c3 45 8 110 11 145 l6 62 438 0 438
0 6 -62z"/>
<path d="M3491 3036 c-6 -8 -17 -52 -23 -99 l-11 -86 -58 -22 -59 -21 -68 51
c-38 28 -78 51 -88 51 -25 0 -264 -239 -264 -263 0 -10 24 -50 54 -89 l53 -71
-24 -57 -25 -57 -85 -11 c-47 -6 -91 -17 -99 -23 -21 -17 -20 -351 1 -372 8
-9 45 -19 82 -23 96 -10 103 -14 128 -75 l22 -54 -54 -69 c-29 -38 -53 -77
-53 -86 0 -17 250 -270 266 -270 13 0 70 42 93 69 11 12 21 22 23 21 2 -1 15
4 30 11 22 9 30 9 43 -1 8 -7 31 -18 52 -25 35 -12 36 -14 39 -69 5 -86 20
-133 47 -140 29 -8 305 -8 334 0 25 7 37 41 49 137 5 47 11 60 28 67 11 4 37
15 57 24 l37 15 73 -54 c40 -30 77 -55 82 -55 17 0 267 253 267 270 0 9 -24
48 -53 86 l-54 69 22 55 c25 60 30 63 135 75 33 4 67 14 75 22 21 20 22 355 2
372 -8 6 -49 16 -93 22 -43 6 -84 16 -90 23 -7 6 -21 32 -32 57 l-20 47 54 71
c30 39 54 79 54 88 0 24 -240 263 -264 263 -10 0 -50 -23 -88 -51 l-68 -51
-59 21 -58 22 -11 86 c-6 47 -17 91 -23 99 -9 11 -50 14 -189 14 -139 0 -180
-3 -189 -14z m313 -83 c2 -10 8 -46 11 -80 4 -34 12 -68 18 -76 7 -8 53 -31
102 -51 l90 -36 45 32 c25 17 58 40 73 52 l28 20 85 -86 86 -85 -51 -71 c-50
-68 -60 -95 -42 -106 5 -3 21 -40 36 -81 16 -42 31 -78 36 -80 4 -3 44 -10 88
-17 l81 -11 0 -122 c0 -139 9 -127 -100 -141 -58 -7 -90 -26 -90 -53 0 -9 -14
-45 -30 -79 -17 -35 -30 -68 -30 -74 0 -5 20 -36 45 -67 24 -32 45 -63 47 -69
2 -7 -35 -50 -81 -96 l-84 -84 -65 49 c-36 27 -69 49 -75 49 -18 0 -192 -73
-198 -83 -4 -5 -10 -39 -14 -75 -4 -36 -9 -71 -12 -79 -4 -10 -34 -13 -123
-13 -134 0 -124 -7 -136 93 -4 40 -13 65 -28 78 -24 23 -59 34 -81 25 -9 -3
-15 0 -15 7 0 14 -61 47 -86 47 -8 0 -33 -17 -57 -37 -77 -69 -74 -69 -153 7
-117 114 -112 96 -53 175 47 61 51 71 41 94 -5 14 -22 55 -37 91 -15 36 -31
70 -36 76 -5 6 -35 14 -66 18 -112 13 -103 1 -103 141 l0 122 81 11 c44 7 84
14 88 17 5 2 20 38 36 80 15 41 31 78 36 81 18 11 8 38 -42 106 l-51 71 86 85
85 86 28 -20 c15 -12 48 -35 73 -52 l45 -32 90 36 c50 20 95 43 101 50 7 8 15
45 19 81 4 37 9 72 12 80 4 10 34 13 123 13 104 0 119 -2 124 -17z"/>
<path d="M3577 2445 c-75 -28 -134 -81 -169 -153 -79 -160 -18 -341 140 -419
118 -58 270 -28 357 69 58 63 80 120 80 208 0 65 -4 84 -33 142 -36 73 -95
126 -172 153 -53 19 -152 18 -203 0z m170 -80 c34 -10 65 -29 92 -56 141 -141
41 -379 -159 -379 -200 0 -300 238 -159 379 39 39 104 69 155 70 11 1 43 -6
71 -14z"/>
</g>
</svg>
